<?xml version="1.0" encoding="UTF-8" standalone="no"?>
<svg
   xmlns:dc="http://purl.org/dc/elements/1.1/"
   xmlns:cc="http://creativecommons.org/ns#"
   xmlns:rdf="http://www.w3.org/1999/02/22-rdf-syntax-ns#"
   xmlns:svg="http://www.w3.org/2000/svg"
   xmlns="http://www.w3.org/2000/svg"
   viewBox="0 0 5333.3335 5333.3335"
   height="5333.3335"
   width="5333.3335"
   xml:space="preserve"
   id="svg2"
   version="1.1"><metadata
     id="metadata8"><rdf:RDF><cc:Work
         rdf:about=""><dc:format>image/svg+xml</dc:format><dc:type
           rdf:resource="http://purl.org/dc/dcmitype/StillImage" /></cc:Work></rdf:RDF></metadata><defs
     id="defs6"><clipPath
       id="clipPath18"
       clipPathUnits="userSpaceOnUse"><path
         id="path16"
         d="M 0,4000 H 4000 V 0 H 0 Z" /></clipPath><clipPath
       id="clipPath66"
       clipPathUnits="userSpaceOnUse"><path
         id="path64"
         d="M 0,4000 H 4000 V 0 H 0 Z" /></clipPath></defs><g
     transform="matrix(1.3333333,0,0,-1.3333333,0,5333.3333)"
     id="g10"><g
       id="g12"><g
         clip-path="url(#clipPath18)"
         id="g14"><g
           transform="translate(770.5557,1585.373)"
           id="g20"><path
             id="path22"
             style="fill:#ed1c24;fill-opacity:1;fill-rule:nonzero;stroke:none"
             d="m 0,0 c 2.004,10.559 4.02,23.759 6.036,39.6 1.999,15.837 3.771,33.055 5.276,51.664 1.51,18.597 2.759,37.711 3.776,57.322 0.999,19.611 1.505,38.467 1.505,56.57 0,27.153 -1.261,50.65 -3.771,70.52 -2.521,19.858 -6.542,31.303 -12.067,34.319 -9.051,4.526 -13.577,10.054 -13.577,16.595 0,15.579 26.138,39.22 78.444,70.898 5.02,2.509 9.673,4.645 13.949,6.411 4.271,1.757 8.419,2.64 12.445,2.64 4.526,0 9.302,-1.26 14.333,-3.77 5.525,-6.542 14.333,-11.315 26.4,-14.333 12.067,-3.015 25.383,-4.523 39.971,-4.523 11.056,0 22.124,0.871 33.192,2.638 11.05,1.757 21.235,4.148 30.542,7.166 9.301,3.018 17.348,6.789 24.14,11.315 6.786,4.523 11.184,9.804 13.2,15.837 5.019,4.021 9.051,6.034 12.067,6.034 6.53,0 10.806,-6.786 12.822,-20.364 1.505,-8.049 2.51,-15.59 3.015,-22.626 0.494,-7.05 0.756,-13.578 0.756,-19.611 0,-22.133 -4.526,-38.598 -13.578,-49.404 -9.052,-10.818 -23.89,-16.723 -44.497,-17.726 -9.052,-1.507 -18.365,-2.263 -27.911,-2.263 -15.593,0 -31.559,1.627 -47.896,4.904 -16.343,3.265 -34.069,7.66 -53.171,13.2 0,-13.081 0.116,-26.4 0.377,-39.975 0.244,-13.577 0.378,-27.66 0.378,-42.237 0,-41.238 -0.639,-83.345 -1.888,-126.337 -1.261,-42.993 -3.899,-83.345 -7.919,-121.057 0.494,-6.033 4.148,-10.937 10.934,-14.707 6.792,-3.771 15.466,-6.789 26.022,-9.052 10.562,-2.263 22.502,-3.901 35.829,-4.904 13.316,-1.011 26.778,-1.507 40.349,-1.507 22.63,0 43.748,0.871 63.362,2.64 19.609,1.755 33.68,3.393 42.238,4.904 -13.578,-17.61 -23.89,-33.567 -30.926,-47.896 -7.047,-14.33 -13.577,-26.775 -19.608,-37.334 -6.036,-10.56 -13.084,-18.74 -21.125,-24.515 -8.046,-5.786 -19.869,-8.674 -35.445,-8.674 -27.661,0.497 -54.566,5.397 -80.705,14.708 -26.149,9.298 -49.534,21.118 -70.147,35.451 -20.625,14.33 -37.218,30.04 -49.779,47.141 C 4.776,-43.251 -1.51,-27.152 -1.51,-12.067 -1.51,-9.052 -1.011,-5.031 0,0" /></g><g
           transform="translate(1504.4408,1803.3517)"
           id="g24"><path
             id="path26"
             style="fill:#ed1c24;fill-opacity:1;fill-rule:nonzero;stroke:none"
             d="M 0,0 C 14.583,10.051 24.384,5.525 29.415,-13.578 37.456,-45.256 37.206,-69.146 28.666,-85.23 20.108,-101.329 0,-110.122 -31.675,-111.63 h -1.511 c 0,-21.624 -0.261,-43.629 -0.755,-65.997 -0.505,-22.379 -1.261,-46.385 -2.26,-72.03 0.494,-7.541 -2.521,-18.362 -9.052,-32.433 -6.542,-14.083 -14.838,-28.166 -24.889,-42.238 -10.068,-14.083 -20.625,-26.28 -31.681,-36.581 -11.062,-10.31 -20.625,-15.721 -28.66,-16.215 -6.036,-0.494 -9.429,2.004 -10.184,7.541 -0.75,5.528 0.871,17.595 4.903,36.204 4.02,39.716 7.169,76.933 9.429,111.63 2.26,34.696 3.643,68.376 4.149,101.067 -31.681,-2.521 -59.964,-3.898 -84.853,-4.148 -24.889,-0.258 -47.141,0.625 -66.749,2.641 -0.511,-17.101 -1.133,-34.2 -1.888,-51.289 -0.755,-17.099 -1.882,-34.955 -3.393,-53.552 -1.51,-17.607 -5.787,-35.202 -12.822,-52.797 -7.048,-17.607 -15.216,-33.564 -24.512,-47.893 -9.313,-14.33 -19.114,-26.023 -29.415,-35.074 -10.312,-9.049 -19.492,-13.836 -27.533,-14.33 -5.536,-1.002 -8.424,1.249 -8.674,6.789 -0.255,5.528 0.872,17.841 3.393,36.956 4.526,44.242 7.919,85.349 10.185,123.319 2.26,37.961 3.137,74.79 2.637,110.497 -11.573,5.528 -21.874,11.812 -30.919,18.859 -9.052,7.036 -17.349,14.707 -24.896,23.004 -7.541,8.296 -14.704,16.97 -21.49,26.022 -6.792,9.049 -13.955,18.594 -21.496,28.66 34.69,-14.083 66.865,-24.643 96.541,-31.678 -1.016,21.118 -2.643,42.107 -4.903,62.978 -2.26,20.86 -5.159,42.615 -8.674,65.244 -31.181,13.07 -9.557,42.238 64.866,87.491 8.036,4.02 14.45,6.788 19.231,8.299 4.776,1.508 9.429,0.494 13.955,-3.018 5.525,-4.526 8.546,-9.557 9.052,-15.085 0.494,-5.54 0,-11.821 -1.511,-18.856 -1.504,-7.048 -3.015,-14.966 -4.525,-23.759 -1.505,-8.802 -1.505,-18.737 0,-29.793 2.004,-28.166 3.514,-54.188 4.525,-78.064 1.005,-23.89 1.755,-47.141 2.266,-69.767 21.613,-1.014 44.62,-0.636 69.009,1.13 24.384,1.757 51.162,4.903 80.333,9.429 -1.017,22.121 -2.772,43.992 -5.282,65.619 -2.521,21.613 -5.542,43.745 -9.051,66.374 -31.181,13.07 -9.557,42.238 64.867,87.491 8.034,4.02 14.448,6.788 19.23,8.299 4.776,1.508 9.429,0.494 13.955,-3.018 5.525,-4.526 8.546,-9.557 9.052,-15.085 0.494,-5.54 0,-11.821 -1.511,-18.856 -1.51,-7.048 -3.015,-14.966 -4.526,-23.759 -1.504,-8.802 -1.504,-18.737 0,-29.793 3.016,-41.744 4.526,-79.702 4.526,-113.89 5.525,2.51 11.056,4.9 16.593,7.163 C -11.062,-5.659 -5.537,-3.018 0,0" /></g><g
           transform="translate(1683.1858,1901.4011)"
           id="g28"><path
             id="path30"
             style="fill:#ed1c24;fill-opacity:1;fill-rule:nonzero;stroke:none"
             d="m 0,0 c 2.004,-33.186 3.643,-63.734 4.903,-91.638 1.25,-27.908 2.005,-54.685 2.266,-80.33 0.244,-25.644 0,-50.792 -0.755,-75.423 -0.755,-24.642 -2.144,-50.534 -4.148,-77.689 -1.511,-17.607 -5.92,-35.201 -13.2,-52.797 -7.297,-17.606 -15.594,-33.563 -24.889,-47.893 -9.313,-14.33 -19.12,-26.022 -29.416,-35.074 -10.312,-9.049 -19.497,-13.836 -27.532,-14.33 -6.542,-0.493 -10.063,2.005 -10.557,7.542 -0.511,5.528 1.249,17.595 5.276,36.203 4.526,42.241 7.918,81.838 10.184,118.797 2.26,36.956 3.393,72.405 3.393,106.349 0,33.94 -1.388,67.245 -4.148,99.937 -2.771,32.678 -6.919,66.113 -12.445,100.313 -16.099,7.035 -18.736,17.725 -7.918,32.055 10.806,14.333 35.073,32.811 72.785,55.438 8.035,4.525 14.577,7.413 19.608,8.674 5.02,1.249 9.546,0.119 13.578,-3.393 C 2.51,82.215 5.531,77.181 6.036,71.656 6.53,66.116 6.153,59.835 4.903,52.8 3.643,45.752 2.132,37.961 0.378,29.418 -1.389,20.86 -1.505,11.056 0,0" /></g><g
           transform="translate(2108.5811,1900.6488)"
           id="g32"><path
             id="path34"
             style="fill:#ed1c24;fill-opacity:1;fill-rule:nonzero;stroke:none"
             d="m 0,0 c 1.999,-27.152 3.393,-52.55 4.148,-76.178 0.749,-23.643 1.249,-46.647 1.505,-69.015 0.25,-22.38 0.122,-44.501 -0.378,-66.375 -0.505,-21.871 -1.011,-44.628 -1.504,-68.259 25.133,-15.591 48.268,-28.919 69.386,-39.975 -22.129,-9.048 -45.758,-12.822 -70.897,-11.311 v -16.596 c 0.494,-7.541 -2.638,-18.359 -9.429,-32.431 -6.786,-14.083 -15.083,-28.166 -24.89,-42.237 -9.807,-14.086 -20.247,-26.4 -31.303,-36.959 -11.062,-10.56 -20.619,-16.088 -28.66,-16.593 -6.542,-0.497 -10.062,2.002 -10.556,7.541 -0.512,5.528 1.249,17.595 5.275,36.204 2.516,22.626 4.648,44.373 6.414,65.241 1.755,20.861 3.137,40.849 4.148,59.964 -30.17,14.071 -59.963,33.435 -89.378,58.078 -29.415,24.63 -57.697,54.304 -84.852,89 0.493,-28.166 0.249,-55.437 -0.756,-81.834 -1.011,-26.4 -2.521,-54.438 -4.526,-84.1 -1.504,-17.607 -5.786,-35.202 -12.822,-52.797 -7.047,-17.607 -15.344,-33.563 -24.889,-47.896 -9.557,-14.33 -19.364,-26.019 -29.415,-35.071 -10.063,-9.052 -19.115,-13.825 -27.155,-14.33 -5.537,-0.497 -8.425,1.885 -8.674,7.163 -0.256,5.282 0.877,17.468 3.398,36.582 4.526,42.734 7.919,82.462 10.179,119.171 2.266,36.698 3.265,72.149 3.021,106.349 -0.261,34.188 -1.772,67.623 -4.526,100.315 -2.771,32.68 -6.919,66.375 -12.444,101.068 -15.594,7.036 -17.988,17.726 -7.17,32.056 10.807,14.332 34.813,32.811 72.031,55.437 8.04,4.526 14.576,7.544 19.614,9.052 5.019,1.507 9.545,0.246 13.571,-3.771 4.021,-3.524 6.664,-7.166 7.925,-10.937 1.249,-3.771 1.754,-7.803 1.505,-12.07 -0.256,-4.276 -1.011,-9.049 -2.26,-14.33 -1.261,-5.278 -2.394,-10.937 -3.393,-16.97 5.525,-21.624 12.56,-41.482 21.118,-59.586 16.593,-36.204 39.339,-70.272 68.26,-102.2 28.904,-31.937 60.207,-61.471 93.898,-88.623 0.5,36.203 -0.633,71.524 -3.393,105.971 -2.765,34.437 -7.163,69.767 -13.2,105.971 -15.587,7.036 -17.981,17.726 -7.163,32.056 10.806,14.332 34.812,32.811 72.03,55.437 8.041,4.526 14.577,7.544 19.608,9.052 5.026,1.507 9.552,0.246 13.578,-3.771 C 2.51,82.967 5.525,77.933 6.031,72.408 6.524,66.868 6.147,60.588 4.897,53.552 3.637,46.505 2.132,38.583 0.372,29.793 -1.395,20.988 -1.511,11.053 0,0" /></g><g
           transform="translate(2210.3982,1585.373)"
           id="g36"><path
             id="path38"
             style="fill:#ed1c24;fill-opacity:1;fill-rule:nonzero;stroke:none"
             d="m 0,0 c 3.015,14.58 5.775,33.813 8.296,57.7 2.51,23.876 4.526,49.145 6.037,75.801 -17.61,11.056 -32.059,24.761 -43.371,41.107 -11.311,16.335 -21.496,34.06 -30.548,53.175 12.067,-7.541 24.384,-14.214 36.957,-19.989 12.566,-5.787 25.644,-10.687 39.222,-14.707 v 14.332 c 0,26.644 -1.133,49.651 -3.393,69.012 -2.266,19.353 -6.414,30.548 -12.445,33.564 -9.052,4.526 -13.578,10.054 -13.578,16.595 0,15.579 26.139,39.22 78.445,70.898 5.02,2.509 9.673,4.645 13.949,6.411 4.27,1.757 8.419,2.64 12.445,2.64 4.526,0 9.301,-1.26 14.333,-3.77 5.525,-6.542 14.332,-11.315 26.4,-14.333 12.066,-3.015 25.383,-4.523 39.971,-4.523 11.056,0 22.124,0.871 33.192,2.638 11.05,1.757 21.234,4.148 30.542,7.166 9.301,3.018 17.348,6.789 24.14,11.315 6.785,4.523 11.184,9.804 13.199,15.837 5.02,4.021 9.052,6.034 12.068,6.034 6.53,0 10.806,-6.786 12.822,-20.364 1.504,-8.049 2.51,-15.59 3.015,-22.626 0.494,-7.05 0.755,-13.578 0.755,-19.611 0,-22.133 -4.526,-38.598 -13.577,-49.404 -9.052,-10.818 -23.89,-16.723 -44.498,-17.726 -9.051,-1.507 -18.364,-2.263 -27.91,-2.263 -15.593,0 -31.559,1.627 -47.896,4.904 -16.343,3.265 -34.069,7.66 -53.172,13.2 V 181.775 c 30.171,0.494 63.095,6.28 98.808,17.345 18.597,6.53 36.451,16.843 53.549,30.926 3.515,3.512 6.53,5.278 9.052,5.278 4.526,0 7.791,-6.034 9.807,-18.101 0.999,-8.049 1.882,-15.463 2.637,-22.251 0.756,-6.786 1.133,-12.95 1.133,-18.478 0,-36.204 -14.083,-55.319 -42.237,-57.323 -23.64,-4.526 -45.137,-7.803 -64.489,-9.804 -19.364,-2.016 -37.334,-3.018 -53.927,-3.018 H 113.89 c -1.011,-21.624 -2.016,-42.743 -3.015,-63.356 -1.011,-20.625 -2.522,-40.483 -4.526,-59.586 0.494,-6.033 4.148,-10.937 10.934,-14.707 6.791,-3.771 15.466,-6.789 26.022,-9.052 10.562,-2.263 22.501,-3.901 35.829,-4.904 13.316,-1.011 26.778,-1.507 40.349,-1.507 22.63,0 43.748,0.871 63.362,2.64 19.608,1.755 33.68,3.393 42.238,4.904 -13.578,-17.61 -23.89,-33.567 -30.926,-47.896 -7.047,-14.33 -13.578,-26.775 -19.614,-37.334 -6.031,-10.56 -13.078,-18.74 -21.119,-24.515 -8.046,-5.786 -19.869,-8.674 -35.445,-8.674 -27.661,0.497 -54.566,5.397 -80.705,14.708 -26.15,9.298 -49.534,21.118 -70.148,35.451 -20.624,14.33 -37.217,30.04 -49.778,47.141 -12.572,17.087 -18.859,33.186 -18.859,48.271 0,3.015 0.5,7.036 1.511,12.067" /></g><g
           transform="translate(2587.5251,1421.7017)"
           id="g40"><path
             id="path42"
             style="fill:#ed1c24;fill-opacity:1;fill-rule:nonzero;stroke:none"
             d="m 0,0 c -1.51,12.564 -2.266,24.384 -2.266,35.449 0,24.136 4.642,42.24 13.955,54.307 9.296,12.067 24.762,18.597 46.386,19.611 9.052,1.508 18.347,2.263 27.905,2.263 15.088,0 30.798,-1.639 47.141,-4.904 16.337,-3.276 34.063,-7.671 53.177,-13.2 0,6.531 0.244,16.219 0.755,29.038 0.494,12.822 0.872,26.519 1.127,41.107 0.25,14.58 0.628,28.91 1.133,42.993 0.494,14.071 0.755,25.645 0.755,34.696 -4.032,-1.51 -10.818,-2.771 -20.363,-3.773 -9.557,-1.014 -20.497,-1.885 -32.814,-2.638 -12.323,-0.755 -25.395,-1.391 -39.216,-1.888 -13.839,-0.505 -26.778,-0.752 -38.845,-0.752 -10.562,0 -19.869,0.116 -27.91,0.377 -8.047,0.247 -14.083,0.872 -18.098,1.886 h -1.51 c -7.048,0 -11.689,4.017 -13.955,12.067 -2.26,8.037 -3.393,17.841 -3.393,29.415 0,9.545 0.377,19.352 1.133,29.415 0.755,10.054 1.127,19.105 1.127,27.155 v 5.278 c 0,4.526 0.122,9.299 0.377,14.33 0.25,5.023 0.378,10.301 0.378,15.841 0,11.561 -0.256,23.25 -0.755,35.071 -0.506,11.811 -1.261,22.498 -2.26,32.055 -1.011,9.549 -2.26,17.595 -3.771,24.137 -1.51,6.53 -3.277,10.559 -5.281,12.067 -9.052,3.512 -13.578,8.793 -13.578,15.841 0,15.085 26.894,38.96 80.705,71.652 5.019,2.51 9.807,4.645 14.333,6.411 4.525,1.758 8.79,2.641 12.822,2.641 4.02,0 8.546,-1.261 13.577,-3.771 5.525,-6.542 14.327,-11.314 26.4,-14.333 12.067,-3.015 25.383,-4.523 39.972,-4.523 11.056,0 22.124,0.872 33.185,2.638 11.057,1.758 21.241,4.148 30.548,7.166 9.302,3.019 17.349,6.789 24.134,11.315 6.792,4.526 11.434,9.804 13.956,15.838 5.019,4.02 9.301,6.033 12.822,6.033 6.036,0 10.051,-7.047 12.067,-21.118 1.51,-13.081 2.266,-24.89 2.266,-35.449 0,-24.137 -4.654,-42.121 -13.955,-53.93 -9.308,-11.82 -24.773,-18.231 -46.386,-19.233 -10.063,-1.508 -19.87,-2.263 -29.415,-2.263 -15.088,0 -30.676,1.627 -46.763,4.903 -16.1,3.265 -33.697,7.661 -52.8,13.2 0,-8.049 -0.128,-17.984 -0.378,-29.792 -0.255,-11.821 -0.505,-24.137 -0.749,-36.96 -0.262,-12.822 -0.639,-25.394 -1.133,-37.711 -0.506,-12.326 -0.755,-23.004 -0.755,-32.056 l 98.807,3.771 c 7.036,0.496 13.316,0.755 18.853,0.755 h 15.844 c 16.592,0 29.037,-1.014 37.334,-3.018 8.296,-2.013 14.199,-5.032 17.725,-9.049 3.509,-4.032 5.398,-9.429 5.653,-16.218 0.25,-6.786 0.628,-14.966 1.133,-24.512 -0.505,-7.047 -0.755,-15.344 -0.755,-24.889 v -30.926 c 0,-15.085 0.122,-30.429 0.378,-46.008 0.249,-15.593 0.755,-30.051 1.51,-43.37 0.755,-13.328 1.882,-24.396 3.393,-33.186 1.51,-8.804 3.265,-13.705 5.281,-14.707 9.052,-4.032 13.578,-9.311 13.578,-15.841 0,-15.085 -26.906,-38.972 -80.705,-71.652 C 228.274,6.53 223.37,4.407 219.106,2.641 214.83,0.883 210.682,0 206.661,0 c -4.032,0 -8.558,1.261 -13.577,3.771 -5.537,6.53 -14.327,11.314 -26.4,14.332 -12.067,3.016 -25.395,4.523 -39.972,4.523 -11.067,0 -22.135,-0.883 -33.185,-2.637 C 82.459,18.22 72.146,15.84 62.601,12.822 53.044,9.807 44.875,6.033 38.089,1.508 31.298,-3.015 26.644,-8.297 24.134,-14.33 19.103,-18.35 15.082,-20.364 12.067,-20.364 6.031,-20.364 1.999,-13.575 0,0" /></g><g
           transform="translate(2950.3079,1585.373)"
           id="g44"><path
             id="path46"
             style="fill:#ed1c24;fill-opacity:1;fill-rule:nonzero;stroke:none"
             d="m 0,0 c 3.015,14.58 5.775,33.813 8.296,57.7 2.51,23.876 4.526,49.145 6.031,75.801 -17.604,11.056 -32.053,24.761 -43.37,41.107 -11.312,16.335 -21.497,34.06 -30.542,53.175 12.066,-7.541 24.377,-14.214 36.956,-19.989 12.561,-5.787 25.644,-10.687 39.222,-14.707 v 14.332 c 0,26.644 -1.133,49.651 -3.399,69.012 -2.26,19.353 -6.408,30.548 -12.444,33.564 -9.046,4.526 -13.572,10.054 -13.572,16.595 0,15.579 26.138,39.22 78.438,70.898 5.02,2.509 9.679,4.645 13.955,6.411 4.265,1.757 8.413,2.64 12.445,2.64 4.526,0 9.296,-1.26 14.333,-3.77 5.525,-6.542 14.327,-11.315 26.394,-14.333 12.067,-3.015 25.389,-4.523 39.983,-4.523 11.05,0 22.112,0.871 33.186,2.638 11.05,1.757 21.229,4.148 30.548,7.166 9.296,3.018 17.348,6.789 24.134,11.315 6.786,4.523 11.178,9.804 13.2,15.837 5.019,4.021 9.051,6.034 12.061,6.034 6.53,0 10.806,-6.786 12.828,-20.364 1.511,-8.049 2.51,-15.59 3.009,-22.626 0.5,-7.05 0.756,-13.578 0.756,-19.611 0,-22.133 -4.52,-38.598 -13.572,-49.404 -9.052,-10.818 -23.89,-16.723 -44.503,-17.726 -9.052,-1.507 -18.359,-2.263 -27.911,-2.263 -15.582,0 -31.558,1.627 -47.884,4.904 -16.355,3.265 -34.075,7.66 -53.183,13.2 V 181.775 c 30.17,0.494 63.106,6.28 98.813,17.345 18.592,6.53 36.451,16.843 53.543,30.926 3.521,3.512 6.531,5.278 9.052,5.278 4.532,0 7.797,-6.034 9.807,-18.101 0.999,-8.049 1.883,-15.463 2.638,-22.251 0.755,-6.786 1.138,-12.95 1.138,-18.478 0,-36.204 -14.083,-55.319 -42.237,-57.323 -23.646,-4.526 -45.142,-7.803 -64.489,-9.804 -19.37,-2.016 -37.339,-3.018 -53.932,-3.018 H 113.89 c -1.017,-21.624 -2.016,-42.743 -3.021,-63.356 -1.011,-20.625 -2.522,-40.483 -4.52,-59.586 0.494,-6.033 4.148,-10.937 10.934,-14.707 6.786,-3.771 15.46,-6.789 26.022,-9.052 10.557,-2.263 22.496,-3.901 35.823,-4.904 13.317,-1.011 26.784,-1.507 40.356,-1.507 22.623,0 43.747,0.871 63.361,2.64 19.603,1.755 33.674,3.393 42.238,4.904 -13.583,-17.61 -23.89,-33.567 -30.932,-47.896 -7.041,-14.33 -13.571,-26.775 -19.602,-37.334 -6.042,-10.56 -13.084,-18.74 -21.124,-24.515 -8.053,-5.786 -19.87,-8.674 -35.452,-8.674 -27.655,0.497 -54.566,5.397 -80.704,14.708 -26.15,9.298 -49.529,21.118 -70.142,35.451 -20.625,14.33 -37.218,30.04 -49.785,47.141 C 4.77,-43.251 -1.51,-27.152 -1.51,-12.067 -1.51,-9.052 -1.017,-5.031 0,0" /></g><g
           transform="translate(1763.2584,3020.6824)"
           id="g48"><path
             id="path50"
             style="fill:#100f0d;fill-opacity:1;fill-rule:nonzero;stroke:none"
             d="m 0,0 -86.216,-73.529 1049.875,-941.744 43.685,41.954 -677.185,648.927 277.39,248.557 -78.43,72.663 -267.011,-256.63 z" /></g><g
           transform="translate(1924.5892,2666.7351)"
           id="g52"><path
             id="path54"
             style="fill:#100f0d;fill-opacity:1;fill-rule:nonzero;stroke:none"
             d="m 0,0 65.311,-59.255 -662.624,-602.071 -45.847,41.522 z" /></g></g></g><text
       id="text58"
       style="font-variant:normal;font-weight:normal;font-stretch:normal;font-size:366.13931274px;font-family:'Gang of Three';-inkscape-font-specification:GangofThree;writing-mode:lr-tb;fill:#100f0d;fill-opacity:1;fill-rule:nonzero;stroke:none"
       transform="matrix(1,0,0,-1,1344.2988,1084.4229)"><tspan
         id="tspan56"
         y="0"
         x="0 279.18121 568.06512 856.21674 1120.9354">HOUSE</tspan></text>
<g
       id="g60"><g
         clip-path="url(#clipPath66)"
         id="g62"><path
           id="path68"
           style="fill:#100f0d;fill-opacity:1;fill-rule:nonzero;stroke:none"
           d="m 3275.391,1205.82 h -504.789 v 23.797 h 504.789 z" /><path
           id="path70"
           style="fill:#100f0d;fill-opacity:1;fill-rule:nonzero;stroke:none"
           d="M 1262.523,1205.82 H 757.734 v 23.797 h 504.789 z" /><g
           transform="translate(1973.9646,2512.4009)"
           id="g72"><path
             id="path74"
             style="fill:#ed1c24;fill-opacity:1;fill-rule:nonzero;stroke:none"
             d="m 0,0 c 14.87,2.42 25.914,-2.522 37.141,-5.743 28.156,-8.079 51.799,-23.19 70.834,-45.613 23.349,-27.505 25.492,-72.025 4.656,-106.985 -9.494,-15.929 -22.348,-29.236 -34.623,-42.928 -11.534,-12.866 -22.665,-25.99 -31.35,-40.967 -21.439,-36.974 -17.075,-69.911 13.557,-100.107 14.465,-14.258 31.445,-25.275 48.763,-35.756 3.966,-2.4 8.892,-3.515 11.378,-7.863 -0.138,-2.487 -1.851,-3.313 -3.637,-3.02 -32.203,5.285 -62.076,16.138 -87.207,37.686 -36.393,31.204 -45.939,75.411 -27.002,121.312 8.563,20.757 22.992,37.311 36.938,54.275 10.181,12.386 21.052,24.25 29.659,37.835 20.935,33.045 17.692,60.127 -9.627,88.496 C 46.188,-35.576 31.216,-24.022 15.493,-13.27 10.703,-9.995 5.245,-7.452 0,0" /></g><g
           transform="translate(2127.5977,2020.4386)"
           id="g76"><path
             id="path78"
             style="fill:#231f20;fill-opacity:1;fill-rule:nonzero;stroke:none"
             d="m 0,0 c -0.107,11.438 6.368,14.826 10.034,19.896 11.556,15.982 22.315,31.993 22.366,53.1 0.046,18.67 -6.451,33.409 -21.367,44.612 -10.453,7.851 -21.271,15.093 -32.401,21.972 -14.11,8.719 -28.068,17.702 -38.331,31.369 -13.84,18.429 -18.68,38.349 -10.479,60.265 10.985,29.356 32.575,48.009 62.549,61.461 -0.545,-9.146 -5.217,-13.088 -8.53,-17.643 -7.673,-10.549 -16.101,-20.557 -21.674,-32.538 -8.997,-19.341 -6.234,-36.925 7.508,-52.928 9.041,-10.53 20.586,-17.797 32.535,-24.537 C 23.758,152.873 42.416,137.958 53.591,114.883 62.413,96.668 63.696,78.137 56.906,59.615 47.036,32.693 26.814,15.122 0,0" /></g><g
           transform="translate(1927.1586,2255.5249)"
           id="g80"><path
             id="path82"
             style="fill:#231f20;fill-opacity:1;fill-rule:nonzero;stroke:none"
             d="m 0,0 c -5.248,-6.977 -10.651,-13.844 -15.715,-20.952 -16.49,-23.147 -14.74,-40.256 6.606,-59.418 7.935,-7.124 16.786,-13.231 25.241,-19.773 25.424,-19.672 43.164,-43.997 46.651,-76.961 0.234,-2.209 1.231,-4.613 -1.505,-6.19 -4.338,0.644 -5.013,4.678 -6.512,7.641 -13.523,26.718 -34.266,46.767 -58.468,63.624 -8.287,5.772 -16.961,11.002 -25.114,16.952 -22.754,16.606 -27.864,40.47 -12.836,63.989 C -31.976,-15.945 -17.151,-6.49 0,0" /></g></g></g></g></svg>